<svg xmlns="http://www.w3.org/2000/svg" viewBox="0 0 512 512">
  <defs>
    <filter id="shadow" x="-20%" y="-20%" width="140%" height="140%"><feDropShadow dx="8" dy="10" stdDeviation="10" flood-color="#000000" flood-opacity="0.28"/></filter>
  </defs>
  <ellipse cx="260" cy="410" rx="190" ry="36" fill="#000" opacity=".18"/>
  <path d="M67 350 C116 326 164 301 228 310" stroke="#4f6010" stroke-width="28" fill="none" stroke-linecap="round" opacity=".55"/>
  <path d="M67 350 C116 326 164 301 228 310" stroke="#b5cc00" stroke-width="19" fill="none" stroke-linecap="round"/>
  <path d="M236 312 L201 289 L208 325 Z" fill="#b5cc00"/>
  <g filter="url(#shadow)">
    <polygon points="112,190 256,228 256,369 112,321" fill="#178cc8" stroke="#0a5c91" stroke-width="2"/>
    <polygon points="256,228 397,176 397,317 256,369" fill="#55bcea" stroke="#0c6ea7" stroke-width="2"/>
    <polygon points="112,177 249,132 397,176 256,228" fill="#6bd0ff" stroke="#0b68a0" stroke-width="2"/>
    <polygon points="152,183 248,154 354,183 257,211" fill="#063b63" stroke="#0c6ea7" stroke-width="2"/>
  </g>
  <g opacity=".96">
    <polygon points="177,90 233,74 283,130 223,158" fill="#f5fbff" stroke="#2a71aa" stroke-width="2"/>
    <polygon points="223,96 286,82 327,144 266,168" fill="#eef8ff" stroke="#2a71aa" stroke-width="2"/>
    <polygon points="141,112 199,92 250,148 191,171" fill="#eef7ff" stroke="#2b6ea3" stroke-width="2"/>
  </g>
  <g transform="translate(282 174) rotate(-7)" filter="url(#shadow)">
    <rect x="4" y="4" width="150" height="182" rx="10" fill="#f7fbff" stroke="#9dcae6" stroke-width="3"/>
    <polygon points="122,4 154,4 154,37" fill="#d8ecfa" stroke="#9dcae6"/>
    <text x="79" y="100" text-anchor="middle" font-family="DejaVu Sans, Arial, sans-serif" font-size="74" font-weight="700" fill="#c01873">PO</text>
    <rect x="28" y="132" width="102" height="26" rx="6" fill="#eaf5fb" stroke="#b6d9ea"/>
    <text x="79" y="151" text-anchor="middle" font-family="DejaVu Sans, Arial, sans-serif" font-size="17" font-weight="700" fill="#176b9a">XML</text>
  </g>
</svg>
